<mxfile host="app.diagrams.net" modified="2024-05-02T09:03:21.662Z" agent="Mozilla/5.0 (Windows NT 10.0; Win64; x64) AppleWebKit/537.36 (KHTML, like Gecko) Chrome/124.0.0.0 Safari/537.36" etag="3AlXHx5W8u-lCvpEA_My" version="23.0.0" type="github">
  <diagram name="Page-1" id="e3a06f82-3646-2815-327d-82caf3d4e204">
    <mxGraphModel dx="3773" dy="1414" grid="1" gridSize="10" guides="1" tooltips="1" connect="1" arrows="1" fold="1" page="1" pageScale="1.5" pageWidth="1169" pageHeight="826" background="none" math="0" shadow="0">
      <root>
        <mxCell id="0" style=";html=1;" />
        <mxCell id="1" style=";html=1;" parent="0" />
        <mxCell id="6a7d8f32e03d9370-59" value="&amp;nbsp;Rack case" style="whiteSpace=wrap;html=1;fillColor=#EDEDED;fontSize=14;strokeColor=none;verticalAlign=top;movable=1;resizable=1;rotatable=1;deletable=1;editable=1;locked=0;connectable=1;" parent="1" vertex="1">
          <mxGeometry x="442" y="249" width="870" height="693" as="geometry" />
        </mxCell>
        <mxCell id="6a7d8f32e03d9370-62" value="Rack case Network Architecture" style="text;strokeColor=none;fillColor=none;html=1;fontSize=24;fontStyle=1;verticalAlign=middle;align=center;" parent="1" vertex="1">
          <mxGeometry x="446.5" y="190" width="861" height="40" as="geometry" />
        </mxCell>
        <mxCell id="ILSyqEb9SUXVf6VAX7tF-1" value="Router" style="verticalLabelPosition=bottom;sketch=0;aspect=fixed;html=1;verticalAlign=top;strokeColor=none;align=center;outlineConnect=0;shape=mxgraph.citrix.router;" parent="1" vertex="1">
          <mxGeometry x="580" y="577.25" width="55" height="36.5" as="geometry" />
        </mxCell>
        <mxCell id="ILSyqEb9SUXVf6VAX7tF-3" value="Client" style="verticalLabelPosition=bottom;sketch=0;aspect=fixed;html=1;verticalAlign=top;strokeColor=none;align=center;outlineConnect=0;shape=mxgraph.citrix.laptop_2;" parent="1" vertex="1">
          <mxGeometry x="1120" y="552.25" width="116" height="86.5" as="geometry" />
        </mxCell>
        <mxCell id="ILSyqEb9SUXVf6VAX7tF-7" value="" style="endArrow=none;html=1;rounded=0;" parent="1" source="ILSyqEb9SUXVf6VAX7tF-10" target="ILSyqEb9SUXVf6VAX7tF-1" edge="1">
          <mxGeometry width="50" height="50" relative="1" as="geometry">
            <mxPoint x="841.2774509803921" y="620" as="sourcePoint" />
            <mxPoint x="1130" y="655" as="targetPoint" />
          </mxGeometry>
        </mxCell>
        <mxCell id="ILSyqEb9SUXVf6VAX7tF-8" value="" style="endArrow=none;html=1;rounded=0;" parent="1" source="ILSyqEb9SUXVf6VAX7tF-10" target="ILSyqEb9SUXVf6VAX7tF-3" edge="1">
          <mxGeometry width="50" height="50" relative="1" as="geometry">
            <mxPoint x="916.0588235294122" y="620" as="sourcePoint" />
            <mxPoint x="1130" y="655" as="targetPoint" />
          </mxGeometry>
        </mxCell>
        <mxCell id="ILSyqEb9SUXVf6VAX7tF-10" value="HDMI Smart Matrix" style="verticalLabelPosition=bottom;sketch=0;aspect=fixed;html=1;verticalAlign=top;strokeColor=none;align=center;outlineConnect=0;shape=mxgraph.citrix.xenclient_synchronizer;fillColor=#CCCCCC;gradientColor=#000000;gradientDirection=south;" parent="1" vertex="1">
          <mxGeometry x="838.5" y="550" width="76" height="91" as="geometry" />
        </mxCell>
        <mxCell id="ILSyqEb9SUXVf6VAX7tF-23" value="" style="rounded=0;whiteSpace=wrap;html=1;fillColor=#fff2cc;strokeColor=#d6b656;" parent="1" vertex="1">
          <mxGeometry x="687" y="360" width="380" height="110" as="geometry" />
        </mxCell>
        <mxCell id="ILSyqEb9SUXVf6VAX7tF-14" value="192.168.168.55" style="verticalLabelPosition=bottom;sketch=0;aspect=fixed;html=1;verticalAlign=top;strokeColor=none;align=center;outlineConnect=0;shape=mxgraph.citrix.switch;" parent="1" vertex="1">
          <mxGeometry x="967" y="400" width="92" height="41.5" as="geometry" />
        </mxCell>
        <mxCell id="ILSyqEb9SUXVf6VAX7tF-15" value="192.168.168.54" style="verticalLabelPosition=bottom;sketch=0;aspect=fixed;html=1;verticalAlign=top;strokeColor=none;align=center;outlineConnect=0;shape=mxgraph.citrix.switch;" parent="1" vertex="1">
          <mxGeometry x="831" y="400" width="92" height="41.5" as="geometry" />
        </mxCell>
        <mxCell id="ILSyqEb9SUXVf6VAX7tF-16" value="192.168.168.53" style="verticalLabelPosition=bottom;sketch=0;aspect=fixed;html=1;verticalAlign=top;strokeColor=none;align=center;outlineConnect=0;shape=mxgraph.citrix.switch;" parent="1" vertex="1">
          <mxGeometry x="700" y="400" width="92" height="41.5" as="geometry" />
        </mxCell>
        <mxCell id="ILSyqEb9SUXVf6VAX7tF-20" value="" style="endArrow=none;html=1;rounded=0;" parent="1" source="ILSyqEb9SUXVf6VAX7tF-10" target="ILSyqEb9SUXVf6VAX7tF-14" edge="1">
          <mxGeometry width="50" height="50" relative="1" as="geometry">
            <mxPoint x="900" y="650" as="sourcePoint" />
            <mxPoint x="950" y="600" as="targetPoint" />
          </mxGeometry>
        </mxCell>
        <mxCell id="ILSyqEb9SUXVf6VAX7tF-21" value="" style="endArrow=none;html=1;rounded=0;" parent="1" source="ILSyqEb9SUXVf6VAX7tF-10" target="ILSyqEb9SUXVf6VAX7tF-15" edge="1">
          <mxGeometry width="50" height="50" relative="1" as="geometry">
            <mxPoint x="900" y="650" as="sourcePoint" />
            <mxPoint x="950" y="600" as="targetPoint" />
          </mxGeometry>
        </mxCell>
        <mxCell id="ILSyqEb9SUXVf6VAX7tF-26" value="" style="rounded=0;whiteSpace=wrap;html=1;fillColor=#ffe6cc;strokeColor=#d79b00;" parent="1" vertex="1">
          <mxGeometry x="687" y="680" width="380" height="110" as="geometry" />
        </mxCell>
        <mxCell id="ILSyqEb9SUXVf6VAX7tF-22" value="" style="endArrow=none;html=1;rounded=0;" parent="1" source="ILSyqEb9SUXVf6VAX7tF-10" target="ILSyqEb9SUXVf6VAX7tF-16" edge="1">
          <mxGeometry width="50" height="50" relative="1" as="geometry">
            <mxPoint x="770" y="520" as="sourcePoint" />
            <mxPoint x="820" y="470" as="targetPoint" />
          </mxGeometry>
        </mxCell>
        <mxCell id="ILSyqEb9SUXVf6VAX7tF-25" value="Input Transmitter" style="text;html=1;strokeColor=none;fillColor=none;align=center;verticalAlign=middle;whiteSpace=wrap;rounded=0;" parent="1" vertex="1">
          <mxGeometry x="821.5" y="360" width="110" height="30" as="geometry" />
        </mxCell>
        <mxCell id="ILSyqEb9SUXVf6VAX7tF-17" value="" style="endArrow=none;html=1;rounded=0;" parent="1" source="ILSyqEb9SUXVf6VAX7tF-12" target="ILSyqEb9SUXVf6VAX7tF-10" edge="1">
          <mxGeometry width="50" height="50" relative="1" as="geometry">
            <mxPoint x="900" y="650" as="sourcePoint" />
            <mxPoint x="950" y="600" as="targetPoint" />
          </mxGeometry>
        </mxCell>
        <mxCell id="ILSyqEb9SUXVf6VAX7tF-18" value="" style="endArrow=none;html=1;rounded=0;" parent="1" source="ILSyqEb9SUXVf6VAX7tF-13" target="ILSyqEb9SUXVf6VAX7tF-10" edge="1">
          <mxGeometry width="50" height="50" relative="1" as="geometry">
            <mxPoint x="900" y="650" as="sourcePoint" />
            <mxPoint x="950" y="600" as="targetPoint" />
          </mxGeometry>
        </mxCell>
        <mxCell id="ILSyqEb9SUXVf6VAX7tF-19" value="" style="endArrow=none;html=1;rounded=0;" parent="1" source="ILSyqEb9SUXVf6VAX7tF-11" target="ILSyqEb9SUXVf6VAX7tF-10" edge="1">
          <mxGeometry width="50" height="50" relative="1" as="geometry">
            <mxPoint x="900" y="650" as="sourcePoint" />
            <mxPoint x="950" y="600" as="targetPoint" />
          </mxGeometry>
        </mxCell>
        <mxCell id="ILSyqEb9SUXVf6VAX7tF-11" value="192.168.168.546" style="verticalLabelPosition=bottom;sketch=0;aspect=fixed;html=1;verticalAlign=top;strokeColor=none;align=center;outlineConnect=0;shape=mxgraph.citrix.switch;" parent="1" vertex="1">
          <mxGeometry x="700" y="700" width="92" height="41.5" as="geometry" />
        </mxCell>
        <mxCell id="ILSyqEb9SUXVf6VAX7tF-12" value="192.168.168.58" style="verticalLabelPosition=bottom;sketch=0;aspect=fixed;html=1;verticalAlign=top;strokeColor=none;align=center;outlineConnect=0;shape=mxgraph.citrix.switch;" parent="1" vertex="1">
          <mxGeometry x="967" y="700" width="92" height="41.5" as="geometry" />
        </mxCell>
        <mxCell id="ILSyqEb9SUXVf6VAX7tF-13" value="192.168.168.57" style="verticalLabelPosition=bottom;sketch=0;aspect=fixed;html=1;verticalAlign=top;strokeColor=none;align=center;outlineConnect=0;shape=mxgraph.citrix.switch;" parent="1" vertex="1">
          <mxGeometry x="830.5" y="700" width="92" height="41.5" as="geometry" />
        </mxCell>
        <mxCell id="ILSyqEb9SUXVf6VAX7tF-27" value="Out Reciver" style="text;html=1;strokeColor=none;fillColor=none;align=center;verticalAlign=middle;whiteSpace=wrap;rounded=0;" parent="1" vertex="1">
          <mxGeometry x="822" y="760" width="110" height="30" as="geometry" />
        </mxCell>
      </root>
    </mxGraphModel>
  </diagram>
</mxfile>
